<mxfile host="app.diagrams.net" modified="2022-05-19T11:23:34.460Z" agent="5.0 (Macintosh; Intel Mac OS X 10_15_7) AppleWebKit/537.36 (KHTML, like Gecko) Chrome/101.0.4951.64 Safari/537.36" etag="ZrPioI_liIthU7dc5DKq" version="17.0.0" type="github">
  <diagram id="ayxvqEfeR-0YIymTdExs" name="Page-1">
    <mxGraphModel dx="1554" dy="868" grid="1" gridSize="10" guides="1" tooltips="1" connect="1" arrows="1" fold="1" page="1" pageScale="1" pageWidth="827" pageHeight="1169" math="0" shadow="0">
      <root>
        <mxCell id="0" />
        <mxCell id="1" parent="0" />
        <mxCell id="mmW4-nx2cp32IuQYbvBg-6" value="服装板片模版文件" style="text;html=1;resizable=0;autosize=1;align=center;verticalAlign=middle;points=[];fillColor=none;strokeColor=none;rounded=0;" vertex="1" parent="1">
          <mxGeometry x="380" y="210" width="110" height="20" as="geometry" />
        </mxCell>
        <mxCell id="mmW4-nx2cp32IuQYbvBg-7" value="&lt;font style=&quot;font-size: 15px&quot;&gt;服装类型选择&lt;/font&gt;" style="rounded=1;whiteSpace=wrap;html=1;" vertex="1" parent="1">
          <mxGeometry x="260" y="290" width="120" height="60" as="geometry" />
        </mxCell>
        <mxCell id="mmW4-nx2cp32IuQYbvBg-8" value="语义调整" style="rounded=1;whiteSpace=wrap;html=1;fontSize=15;" vertex="1" parent="1">
          <mxGeometry x="260" y="410" width="120" height="60" as="geometry" />
        </mxCell>
        <mxCell id="mmW4-nx2cp32IuQYbvBg-9" value="细节调整" style="rounded=1;whiteSpace=wrap;html=1;fontSize=15;" vertex="1" parent="1">
          <mxGeometry x="260" y="529.5" width="120" height="60" as="geometry" />
        </mxCell>
        <mxCell id="mmW4-nx2cp32IuQYbvBg-18" style="edgeStyle=orthogonalEdgeStyle;rounded=0;orthogonalLoop=1;jettySize=auto;html=1;exitX=0;exitY=0.75;exitDx=0;exitDy=0;fontSize=12;entryX=0.5;entryY=0;entryDx=0;entryDy=0;" edge="1" parent="1" source="mmW4-nx2cp32IuQYbvBg-12" target="mmW4-nx2cp32IuQYbvBg-7">
          <mxGeometry relative="1" as="geometry">
            <mxPoint x="320" y="280" as="targetPoint" />
            <Array as="points">
              <mxPoint x="392" y="180" />
              <mxPoint x="320" y="180" />
            </Array>
          </mxGeometry>
        </mxCell>
        <mxCell id="mmW4-nx2cp32IuQYbvBg-12" value="" style="image;html=1;image=img/lib/clip_art/general/Full_Folder_128x128.png;fontSize=15;" vertex="1" parent="1">
          <mxGeometry x="395" y="120" width="80" height="80" as="geometry" />
        </mxCell>
        <mxCell id="mmW4-nx2cp32IuQYbvBg-13" value="渲染仿真" style="rounded=1;whiteSpace=wrap;html=1;fontSize=15;" vertex="1" parent="1">
          <mxGeometry x="260" y="650" width="120" height="60" as="geometry" />
        </mxCell>
        <mxCell id="mmW4-nx2cp32IuQYbvBg-17" style="edgeStyle=orthogonalEdgeStyle;rounded=0;orthogonalLoop=1;jettySize=auto;html=1;exitX=1;exitY=0.75;exitDx=0;exitDy=0;entryX=0.5;entryY=0;entryDx=0;entryDy=0;fontSize=12;" edge="1" parent="1" source="mmW4-nx2cp32IuQYbvBg-14" target="mmW4-nx2cp32IuQYbvBg-7">
          <mxGeometry relative="1" as="geometry" />
        </mxCell>
        <mxCell id="mmW4-nx2cp32IuQYbvBg-14" value="" style="shape=image;html=1;verticalAlign=top;verticalLabelPosition=bottom;labelBackgroundColor=#ffffff;imageAspect=0;aspect=fixed;image=https://cdn3.iconfinder.com/data/icons/user-interface-797/32/User_Interface_user_person_avatar_customer_interface-128.png;fontSize=15;" vertex="1" parent="1">
          <mxGeometry x="170" y="120" width="80" height="80" as="geometry" />
        </mxCell>
        <mxCell id="mmW4-nx2cp32IuQYbvBg-15" value="虚拟人物" style="text;html=1;align=center;verticalAlign=middle;resizable=0;points=[];autosize=1;strokeColor=none;fillColor=none;fontSize=12;" vertex="1" parent="1">
          <mxGeometry x="200" y="210" width="60" height="20" as="geometry" />
        </mxCell>
        <mxCell id="mmW4-nx2cp32IuQYbvBg-16" value="" style="shape=image;html=1;verticalAlign=top;verticalLabelPosition=bottom;labelBackgroundColor=#ffffff;imageAspect=0;aspect=fixed;image=https://cdn2.iconfinder.com/data/icons/office-icon-set-3/128/user_male3.png;fontSize=12;" vertex="1" parent="1">
          <mxGeometry x="270" y="780" width="100" height="100" as="geometry" />
        </mxCell>
        <mxCell id="mmW4-nx2cp32IuQYbvBg-31" value="" style="aspect=fixed;html=1;points=[];align=center;image;fontSize=12;image=img/lib/azure2/general/File.svg;" vertex="1" parent="1">
          <mxGeometry x="280" y="480" width="24.35" height="30" as="geometry" />
        </mxCell>
        <mxCell id="mmW4-nx2cp32IuQYbvBg-32" value="" style="aspect=fixed;html=1;points=[];align=center;image;fontSize=12;image=img/lib/azure2/general/File.svg;" vertex="1" parent="1">
          <mxGeometry x="280" y="600" width="24.35" height="30" as="geometry" />
        </mxCell>
        <mxCell id="mmW4-nx2cp32IuQYbvBg-33" value="" style="shape=flexArrow;html=1;rounded=0;fontSize=12;entryX=0.5;entryY=0;entryDx=0;entryDy=0;exitX=0.5;exitY=1;exitDx=0;exitDy=0;width=5;endSize=5.83;endWidth=4;" edge="1" parent="1" source="mmW4-nx2cp32IuQYbvBg-8" target="mmW4-nx2cp32IuQYbvBg-9">
          <mxGeometry width="100" height="100" relative="1" as="geometry">
            <mxPoint x="500" y="593.9492753623188" as="sourcePoint" />
            <mxPoint x="390" y="690" as="targetPoint" />
          </mxGeometry>
        </mxCell>
        <mxCell id="mmW4-nx2cp32IuQYbvBg-34" value="" style="shape=flexArrow;html=1;rounded=0;fontSize=12;entryX=0.5;entryY=0;entryDx=0;entryDy=0;exitX=0.5;exitY=1;exitDx=0;exitDy=0;width=5;endSize=5.83;endWidth=4;" edge="1" parent="1">
          <mxGeometry width="100" height="100" relative="1" as="geometry">
            <mxPoint x="319.5" y="350.5" as="sourcePoint" />
            <mxPoint x="319.5" y="410" as="targetPoint" />
          </mxGeometry>
        </mxCell>
        <mxCell id="mmW4-nx2cp32IuQYbvBg-35" value="" style="shape=flexArrow;html=1;rounded=0;fontSize=12;entryX=0.5;entryY=0;entryDx=0;entryDy=0;exitX=0.5;exitY=1;exitDx=0;exitDy=0;width=5;endSize=5.83;endWidth=4;" edge="1" parent="1" target="mmW4-nx2cp32IuQYbvBg-13">
          <mxGeometry width="100" height="100" relative="1" as="geometry">
            <mxPoint x="319.5" y="590.5" as="sourcePoint" />
            <mxPoint x="319.5" y="650" as="targetPoint" />
          </mxGeometry>
        </mxCell>
        <mxCell id="mmW4-nx2cp32IuQYbvBg-39" value="" style="aspect=fixed;html=1;points=[];align=center;image;fontSize=12;image=img/lib/azure2/general/File.svg;" vertex="1" parent="1">
          <mxGeometry x="280" y="360" width="24.35" height="30" as="geometry" />
        </mxCell>
        <mxCell id="mmW4-nx2cp32IuQYbvBg-42" value="选定的模版文件" style="text;html=1;align=center;verticalAlign=middle;resizable=0;points=[];autosize=1;strokeColor=none;fillColor=none;fontSize=12;" vertex="1" parent="1">
          <mxGeometry x="180" y="365" width="100" height="20" as="geometry" />
        </mxCell>
        <mxCell id="mmW4-nx2cp32IuQYbvBg-43" value="语义调整文件数据" style="text;html=1;align=center;verticalAlign=middle;resizable=0;points=[];autosize=1;strokeColor=none;fillColor=none;fontSize=12;" vertex="1" parent="1">
          <mxGeometry x="175" y="485" width="110" height="20" as="geometry" />
        </mxCell>
        <mxCell id="mmW4-nx2cp32IuQYbvBg-44" value="细节调整文件数据" style="text;html=1;align=center;verticalAlign=middle;resizable=0;points=[];autosize=1;strokeColor=none;fillColor=none;fontSize=12;" vertex="1" parent="1">
          <mxGeometry x="175" y="610" width="110" height="20" as="geometry" />
        </mxCell>
        <mxCell id="mmW4-nx2cp32IuQYbvBg-45" value="仿真结果" style="text;html=1;align=center;verticalAlign=middle;resizable=0;points=[];autosize=1;strokeColor=none;fillColor=none;fontSize=12;" vertex="1" parent="1">
          <mxGeometry x="290" y="890" width="60" height="20" as="geometry" />
        </mxCell>
        <mxCell id="mmW4-nx2cp32IuQYbvBg-46" value="" style="shape=flexArrow;html=1;rounded=0;fontSize=12;entryX=0.5;entryY=0;entryDx=0;entryDy=0;exitX=0.5;exitY=1;exitDx=0;exitDy=0;width=5;endSize=5.83;endWidth=4;" edge="1" parent="1">
          <mxGeometry width="100" height="100" relative="1" as="geometry">
            <mxPoint x="319.5" y="710" as="sourcePoint" />
            <mxPoint x="320" y="769.5" as="targetPoint" />
          </mxGeometry>
        </mxCell>
      </root>
    </mxGraphModel>
  </diagram>
</mxfile>
